<?xml version="1.0" encoding="iso-8859-1"?>
<!-- Uploaded to: SVG Repo, www.svgrepo.com, Generator: SVG Repo Mixer Tools -->
<svg fill="#000000" height="800px" width="800px" version="1.1" id="Layer_1" xmlns="http://www.w3.org/2000/svg" xmlns:xlink="http://www.w3.org/1999/xlink" 
	 viewBox="0 0 453.993 453.993" xml:space="preserve">
<g>
	<path d="M241.997,263.21v99.626c26.458-2.902,50.665-13.385,70.401-29.226L241.997,263.21z"/>
	<path d="M211.997,362.836V263.21l-70.401,70.401C161.332,349.451,185.539,359.934,211.997,362.836z"/>
	<path d="M241.997,91.157v99.626l70.401-70.401C292.661,104.542,268.454,94.059,241.997,91.157z"/>
	<path d="M333.61,312.397c15.841-19.736,26.324-43.943,29.226-70.401H263.21L333.61,312.397z"/>
	<path d="M211.997,190.783V91.157c-26.458,2.902-50.665,13.385-70.401,29.226L211.997,190.783z"/>
	<path d="M333.61,141.596l-70.401,70.401h99.627C359.935,185.539,349.452,161.332,333.61,141.596z"/>
	<path d="M120.383,141.596c-15.841,19.736-26.324,43.943-29.226,70.401h99.627L120.383,141.596z"/>
	<path d="M120.383,312.397l70.401-70.401H91.156C94.058,268.454,104.542,292.661,120.383,312.397z"/>
	<path d="M376.938,55.842C340.426,23.837,293.57,3.35,241.997,0v61.002c33.92,3.001,65.706,16.155,91.793,37.988L376.938,55.842z"/>
	<path d="M241.997,392.991v61.002c51.573-3.35,98.43-23.837,134.942-55.842l-43.148-43.148
		C307.703,376.836,275.917,389.99,241.997,392.991z"/>
	<path d="M77.055,398.151c36.512,32.005,83.369,52.492,134.942,55.842v-61.002c-33.92-3.001-65.706-16.155-91.793-37.988
		L77.055,398.151z"/>
	<path d="M392.991,211.997h61.002c-3.35-51.573-23.836-98.429-55.842-134.941l-43.148,43.148
		C376.836,146.291,389.991,178.076,392.991,211.997z"/>
	<path d="M355.003,333.79l43.148,43.148c32.005-36.512,52.492-83.369,55.842-134.941h-61.002
		C389.991,275.917,376.836,307.703,355.003,333.79z"/>
	<path d="M120.203,98.99c26.087-21.833,57.873-34.987,91.793-37.988V0c-51.573,3.35-98.43,23.837-134.942,55.842L120.203,98.99z"/>
	<path d="M98.99,120.203L55.842,77.055C23.836,113.567,3.35,160.424,0,211.997h61.002C64.002,178.076,77.157,146.291,98.99,120.203z
		"/>
	<path d="M61.002,241.997H0c3.35,51.573,23.836,98.429,55.842,134.941L98.99,333.79C77.157,307.703,64.002,275.917,61.002,241.997z"
		/>
</g>
</svg>