<svg xmlns="http://www.w3.org/2000/svg" version="1.1" xmlns:xlink="http://www.w3.org/1999/xlink" xmlns:svgjs="http://svgjs.dev/svgjs" width="1500" height="212" viewBox="0 0 1500 212"><g transform="matrix(1,0,0,1,-0.9090909090909918,0.5349020414036687)"><svg viewBox="0 0 396 56" data-background-color="#ffffff" preserveAspectRatio="xMidYMid meet" height="212" width="1500" xmlns="http://www.w3.org/2000/svg" xmlns:xlink="http://www.w3.org/1999/xlink"><g id="tight-bounds" transform="matrix(1,0,0,1,0.2400000000000091,-0.14129487886134484)"><svg viewBox="0 0 395.52 56.282589757722675" height="56.282589757722675" width="395.52"><g><svg viewBox="0 0 458.52873925709036 65.24874829018155" height="56.282589757722675" width="395.52"><g transform="matrix(1,0,0,1,63.0087392570904,6.100061436680257)"><svg viewBox="0 0 395.52 53.04862541682104" height="53.04862541682104" width="395.52"><g id="textblocktransform"><svg viewBox="0 0 395.52 53.04862541682104" height="53.04862541682104" width="395.52" id="textblock"><g><svg viewBox="0 0 395.52 53.04862541682104" height="53.04862541682104" width="395.52"><g transform="matrix(1,0,0,1,0,0)"><svg width="395.52" viewBox="1 -35.6 269.88 36.2" height="53.04862541682104" data-palette-color="#ea3a36"><path d="M21.4-14.1L21.4-14.1Q21.95-13.2 21.95-10.53 21.95-7.85 20.85-6L20.85-6Q19.85-4.55 16.6-1.98 13.35 0.6 11.8 0.6L11.8 0.6Q9.05 0.6 5.5-2.27 1.95-5.15 1-8.6L1-8.6 6.55-12.4Q7.35-10.05 9.1-8.1 10.85-6.15 11.58-6.15 12.3-6.15 13.13-6.63 13.95-7.1 14.4-7.6L14.4-7.6Q15.05-8.4 15.05-10.1 15.05-11.8 14.25-12.2L14.25-12.2Q13.25-13.05 10.38-14.45 7.5-15.85 5.05-17.48 2.6-19.1 1.93-20.65 1.25-22.2 1.25-24.68 1.25-27.15 2.35-29L2.35-29Q3.35-30.45 6.6-33.02 9.85-35.6 11.4-35.6L11.4-35.6Q14.15-35.6 17.7-32.73 21.25-29.85 22.2-26.4L22.2-26.4 16.65-22.55Q15.85-24.9 14.1-26.88 12.35-28.85 11.63-28.85 10.9-28.85 10.05-28.4 9.2-27.95 8.68-27.28 8.15-26.6 8.15-24.98 8.15-23.35 9.15-22.8L9.15-22.8Q9.95-22.1 12.8-20.6L12.8-20.6Q20.1-16.6 21.4-14.1ZM35.85-10.5L35.85-16.95 36.85-16.95Q37.8-16.95 39.07-17.88 40.35-18.8 40.7-19.9 41.05-21 41.05-22.85 41.05-24.7 40.7-25.93 40.35-27.15 39.07-28.05 37.8-28.95 36.62-28.95 35.45-28.95 33.45-27.65L33.45-27.65Q33.6-26 33.6-24.3L33.6-24.3 33.6 0 26.7 0 26.7-21.4Q26.7-25.6 26.12-27.33 25.55-29.05 23.7-31.35L23.7-31.35 29.7-35.6Q31-34.7 32-32.65L32-32.65Q36.1-35.6 37.85-35.6 39.6-35.6 42.7-32.8 45.8-30 46.9-28.1L46.9-28.1Q47.45-27.4 47.45-23.25 47.45-19.1 46.9-18L46.9-18Q45.8-16.1 42.7-13.3 39.6-10.5 37.85-10.5L37.85-10.5 35.85-10.5ZM65.67-2.68Q62.1 0.6 60.3 0.6 58.5 0.6 54.92-2.68 51.35-5.95 50.5-8L50.5-8Q49.95-9.3 49.95-14.55L49.95-14.55 49.95-20.45Q49.95-25.7 50.5-27L50.5-27Q51.35-29.05 54.92-32.33 58.5-35.6 60.3-35.6 62.1-35.6 65.67-32.33 69.25-29.05 70.1-27L70.1-27Q70.65-25.7 70.65-20.45L70.65-20.45 70.65-14.55Q70.65-9.3 70.1-8L70.1-8Q69.25-5.95 65.67-2.68ZM58.62-7.58Q59.6-6.55 60.3-6.55 61-6.55 61.97-7.58 62.95-8.6 63.35-9.53 63.75-10.45 63.75-14.55L63.75-14.55 63.75-20.45Q63.75-24.55 63.35-25.48 62.95-26.4 61.97-27.43 61-28.45 60.3-28.45 59.6-28.45 58.62-27.43 57.65-26.4 57.25-25.48 56.85-24.55 56.85-20.45L56.85-20.45 56.85-14.55Q56.85-10.45 57.25-9.53 57.65-8.6 58.62-7.58ZM80.89-32.85L80.89-32.85Q84.89-35.6 86.34-35.6 87.79-35.6 90.82-32.98 93.84-30.35 94.59-29.28 95.34-28.2 95.34-26.45L95.34-26.45Q95.34-23.05 94.79-22.4L94.79-22.4Q93.74-20.8 91.54-18.65L91.54-18.65Q94.59-15.75 95.34-14.2L95.34-14.2Q95.74-13.15 96.19-7.83 96.64-2.5 96.64 0L96.64 0 89.14 0Q89.14-2.25 88.74-7.05 88.34-11.85 87.87-12.85 87.39-13.85 86.74-14.6L86.74-14.6 82.29-14.6 82.29 0 75.39 0 75.39-21.9Q75.39-25.95 74.82-27.53 74.24-29.1 72.39-31.4L72.39-31.4 78.39-35.6Q79.99-34.55 80.89-32.85ZM82.29-24.3L82.29-24.3 82.29-20.45 84.24-20.45Q84.94-20.45 86.04-21.55 87.14-22.65 87.47-23.43 87.79-24.2 87.79-25.05 87.79-25.9 87.47-26.58 87.14-27.25 86.54-28.1 85.94-28.95 85.54-28.95L85.54-28.95Q84.19-28.95 82.14-28.3L82.14-28.3Q82.29-26.35 82.29-24.3ZM99.19-35L119.09-35 119.09-29 112.59-29 112.59 0 105.69 0 105.69-29 99.19-29 99.19-35ZM142.09 0L135.19 0 135.19-25.45Q135.19-26.3 134.86-26.88 134.54-27.45 133.79-28.2 133.04-28.95 132.59-28.95L132.59-28.95Q131.59-28.95 129.94-26.95L129.94-26.95Q130.09-25.7 130.09-24.3L130.09-24.3 130.09 0 123.19 0 123.19-21.4Q123.19-25.65 122.61-27.35 122.04-29.05 120.19-31.4L120.19-31.4 126.19-35.6Q127.79-34.45 128.49-32.85L128.49-32.85Q132.09-35.6 133.59-35.6 135.09-35.6 139.24-31.75L139.24-31.75Q143.39-35.6 145.09-35.6L145.09-35.6Q146.34-35.6 149.36-32.98 152.39-30.35 153.14-29.28 153.89-28.2 153.89-26.45L153.89-26.45 153.89 0 146.99 0 146.99-25.45Q146.99-26.4 146.64-26.93 146.29-27.45 145.46-28.2 144.64-28.95 144.01-28.95 143.39-28.95 142.04-27.3L142.04-27.3Q142.09-27.05 142.09-26.45L142.09-26.45 142.09 0ZM163.84-32.35Q167.39-35.6 169.24-35.6 171.09-35.6 174.64-32.35 178.19-29.1 179.04-27L179.04-27Q179.59-25.55 179.59-20.45L179.59-20.45 179.59 0 172.69 0 172.69-7.5 165.79-7.5 165.79 0 158.89 0 158.89-20.45Q158.89-25.55 159.44-27L159.44-27Q160.29-29.1 163.84-32.35ZM165.79-20.45L165.79-20.45 165.79-13.5 172.69-13.5 172.69-20.45Q172.69-24.55 172.29-25.48 171.89-26.4 170.91-27.43 169.94-28.45 169.24-28.45 168.54-28.45 167.56-27.43 166.59-26.4 166.19-25.48 165.79-24.55 165.79-20.45ZM181.93-35L201.83-35 201.83-29 195.33-29 195.33 0 188.43 0 188.43-29 181.93-29 181.93-35ZM203.03-35L222.93-35 222.93-29 216.43-29 216.43 0 209.53 0 209.53-29 203.03-29 203.03-35ZM232.93-28.2L232.93-21.3 241.88-21.3 241.88-15.25 232.93-15.25 232.93-6.05 244.88-6.05 244.88 0 226.03 0 226.03-30.8 232.93-35.6 244.08-35.6 244.08-29.5 234.78-29.5 232.93-28.2ZM255.13-32.85L255.13-32.85Q259.13-35.6 260.58-35.6 262.03-35.6 265.05-32.98 268.08-30.35 268.83-29.28 269.58-28.2 269.58-26.45L269.58-26.45Q269.58-23.05 269.03-22.4L269.03-22.4Q267.98-20.8 265.78-18.65L265.78-18.65Q268.83-15.75 269.58-14.2L269.58-14.2Q269.98-13.15 270.43-7.83 270.88-2.5 270.88 0L270.88 0 263.38 0Q263.38-2.25 262.98-7.05 262.58-11.85 262.1-12.85 261.63-13.85 260.98-14.6L260.98-14.6 256.53-14.6 256.53 0 249.63 0 249.63-21.9Q249.63-25.95 249.05-27.53 248.48-29.1 246.63-31.4L246.63-31.4 252.63-35.6Q254.23-34.55 255.13-32.85ZM256.53-24.3L256.53-24.3 256.53-20.45 258.48-20.45Q259.18-20.45 260.28-21.55 261.38-22.65 261.7-23.43 262.03-24.2 262.03-25.05 262.03-25.9 261.7-26.58 261.38-27.25 260.78-28.1 260.18-28.95 259.78-28.95L259.78-28.95Q258.43-28.95 256.38-28.3L256.38-28.3Q256.53-26.35 256.53-24.3Z" opacity="1" transform="matrix(1,0,0,1,0,0)" fill="#ea3a36" class="wordmark-text-0" data-fill-palette-color="primary" id="text-0"></path></svg></g></svg></g></svg></g></svg></g><g><svg viewBox="0 0 50.48523196318895 65.24874829018155" height="65.24874829018155" width="50.48523196318895"><g><svg xmlns="http://www.w3.org/2000/svg" xmlns:xlink="http://www.w3.org/1999/xlink" version="1.1" x="0" y="0" viewBox="11.452907485383136 0.18319745593316278 77.09324248441663 99.63780254406683" enable-background="new 0 0 100 100" xml:space="preserve" height="65.24874829018155" width="50.48523196318895" class="icon-icon-0" data-fill-palette-color="accent" id="icon-0"><path d="M82.511 27.412c-0.153-0.45-0.335-0.918-0.542-1.396-0.309-1.83-1.747-5.274-1.766-5.313l-0.298-0.659c-0.651-1.429-1.391-3.047-1.525-4.437-0.104-1.073 1.284-6.627 1.951-9.297 1.232-4.926 1.362-5.439-0.14-5.982-0.063-0.023-0.339-0.117-0.695-0.087-0.002 0-0.006-0.001-0.009-0.002-1.432-0.309-2.96 0.686-5.537 2.471-0.451 0.312-1.042 0.721-1.599 1.081 0.194-0.91 0.166-2.092-0.995-3.021-1.473-1.179-3.561 0.025-6.72 1.851-0.885 0.512-2.206 1.277-3.088 1.671-0.698-1.148-1.984-2.393-4.411-1.901-1.373 0.278-2.967 1.482-5.24 3.29-0.594 0.472-1.365 1.083-2.006 1.543-0.01-0.414-0.058-0.866-0.225-1.31-0.799-2.107-2.104-2.776-3.059-2.966-3.087-0.618-6.411 2.896-9.074 5.721-0.167 0.178-0.341 0.361-0.512 0.541-0.771-1.276-1.738-2.592-3.159-2.841-1.37-0.249-7.019 1.107-12.253 5.707-4.985 4.38-10.784 12.835-10.101 28.248 0.189 4.247 2.483 41.865 24.748 55.107 4.921 2.929 10.396 4.39 16.39 4.39 7.176 0 15.095-2.097 23.695-6.287C99.438 82.278 82.694 27.953 82.511 27.412zM74.902 90.58c-14.725 7.176-27.163 7.86-36.969 2.026C17.15 80.245 14.969 44.241 14.789 40.177c-0.458-10.333 2.045-18.458 7.441-24.148 4.628-4.88 9.882-6.251 11.043-6.399 0.393 0.325 1.019 1.403 1.331 1.942 0.274 0.472 0.511 0.881 0.757 1.21 0.526 0.703 1.515 0.868 2.241 0.371 0.604-0.413 1.324-1.176 2.319-2.233 1.294-1.372 4.726-5.016 6.044-4.754 0.19 0.039 0.432 0.387 0.624 0.891 0.027 0.109 0.021 0.439 0.016 0.656-0.017 0.818-0.049 2.342 1.308 3.141 1.58 0.931 3.349-0.477 6.025-2.604 1.178-0.935 3.147-2.5 3.851-2.642 0.6-0.123 0.779-0.16 1.327 1.18 0.203 0.495 0.633 0.86 1.155 0.979 1.377 0.316 3.096-0.622 6.008-2.305 0.714-0.414 1.725-0.997 2.535-1.404-0.262 0.765-0.496 1.825 0.147 2.846 0.317 0.499 0.812 0.84 1.398 0.959 1.408 0.289 2.915-0.695 5.456-2.454 0.459-0.318 1.062-0.735 1.631-1.101-0.099 0.398-0.201 0.809-0.302 1.206-1.284 5.138-2.182 8.893-2.034 10.411 0.077 0.792 0.268 1.578 0.518 2.342-1.675-1.002-3.583-1.524-5.677-1.222-1.18 0.17-2.325 0.668-3.379 1.452-1.541-1.364-3.285-2.314-5.158-2.481-4.594-0.411-10.566-0.412-14.952 1.486-1.987-1.58-4.941-1.796-8.208-0.576-5.852 2.186-9.76 5.959-11.616 11.216-4.686 13.274 5.215 32.351 9.747 40.022-0.164 1.434-0.124 2.876 0.167 4.269 0.791 3.781 4.143 10.188 17.713 10.63 16.722 0.545 22.231-6.685 22.858-11.04 0.339-2.355-0.765-3.736-2.013-4.06-1.087-0.281-4.48-0.328-12.545-0.372-7.308-0.041-19.064-0.107-22.618-0.773 1-3.952 3.772-7.497 6.152-8.631 1.762-0.844 2.623-0.134 3.116 0.473 0.646 0.792 1.375 0.934 1.863 0.939 1.077-0.021 1.734-0.803 2.146-1.342 0.404 0.174 0.913 0.562 1.444 0.966 1.293 0.984 3.066 2.335 5.648 2.366 1.396-0.012 2.551-0.383 3.365-1.188 1.332-1.316 1.442-3.296 1.442-5.379 0-2.181-0.385-4.188-0.757-6.127l-0.197-1.041c-0.765-4.127-1.848-8.546-3.217-13.135-0.281-0.939-0.59-1.899-0.901-2.862-0.438-1.356-0.891-2.758-1.247-4.074-0.231-0.85-0.744-3.052-1.118-4.66-0.191-0.825-0.347-1.49-0.408-1.738-0.221-0.879-1.112-1.414-1.991-1.193-0.88 0.22-1.414 1.112-1.193 1.991 0.06 0.241 0.21 0.885 0.396 1.684 0.381 1.633 0.9 3.869 1.147 4.776 0.377 1.39 0.841 2.83 1.29 4.222 0.304 0.939 0.606 1.877 0.879 2.794 1.338 4.477 2.395 8.78 3.136 12.792l0.201 1.062c0.358 1.872 0.699 3.64 0.699 5.508 0 0.901 0 2.581-0.468 3.044-0.209 0.205-0.678 0.239-1.019 0.239-1.496-0.018-2.566-0.832-3.7-1.694-1.138-0.868-2.422-1.863-4.105-1.72-0.722 0.055-1.21 0.481-1.562 0.894-1.704-1.469-3.945-1.686-6.301-0.563-2.839 1.354-5.578 4.587-7.119 8.388-4.623-8.42-11.58-23.769-7.835-34.374 1.539-4.357 4.702-7.378 9.669-9.233 0.633-0.237 2.413-0.813 3.896-0.457-2.427 2.45-5.893 8.44-5.435 12.451 0.201 1.769 1.147 3.108 2.663 3.77 2.727 1.193 6.862 0.501 8.436-2.391 0.894-1.645 1.177-4.261 0.842-7.779-0.061-0.642-0.354-3.16-1.345-5.357 3.003-1.086 7.366-1.424 12.663-0.952 0.985 0.088 2.072 0.639 3.16 1.577-0.101 0.141-0.199 0.284-0.297 0.43-2.025 3.06-2.879 7.052-2.12 9.932 0.317 1.204 1.155 2.146 2.425 2.726 2.276 1.041 5.57 0.713 7.439-0.207 0.839-0.411 1.736-1.451 1.249-4.067-0.438-2.36-1.95-5.873-4.165-8.749 0.525-0.341 1.066-0.557 1.606-0.634 3.628-0.533 6.886 3.368 8.464 6.87 0.006 0.017 0.014 0.033 0.021 0.05 0.19 0.426 0.356 0.847 0.494 1.253C82.27 36.925 93.027 81.749 74.902 90.58zM66.648 23.53c2.244 3.174 3.165 6.318 3.199 7.445-1.197 0.403-3.087 0.494-4.19-0.011-0.525-0.24-0.593-0.493-0.613-0.576-0.498-1.885 0.133-4.781 1.502-7.002C66.58 23.434 66.615 23.482 66.648 23.53zM46.081 31.805c-0.652 1.199-2.913 1.53-4.238 0.952-0.32-0.14-0.628-0.374-0.715-1.133-0.313-2.747 2.631-7.936 4.467-9.747 0.484 1.192 0.819 2.716 0.944 4.03C46.796 28.601 46.624 30.806 46.081 31.805zM39.57 70.049c3.103 0.547 9.463 0.748 22.979 0.823 4.6 0.025 9.753 0.055 11.355 0.212 0.026 0.468-0.139 1.45-0.95 2.659-1.315 1.952-5.758 6.445-18.579 6.037-8.518-0.276-13.568-3.049-14.608-8.021C39.649 71.195 39.586 70.624 39.57 70.049z" fill="#f27d2c" data-fill-palette-color="accent"></path></svg></g></svg></g></svg></g><defs></defs></svg><rect width="395.52" height="56.282589757722675" fill="none" stroke="none" visibility="hidden"></rect></g></svg></g></svg>